<?xml version="1.0" encoding="UTF-8"?>
<svg xmlns="http://www.w3.org/2000/svg" id="Icons" viewBox="0 0 60 60" width="512" height="512"><path d="M30,7C26.333,7,13.361,8.557.418,28.587a2.606,2.606,0,0,0,0,2.826C13.361,51.443,26.333,53,30,53s16.639-1.557,29.582-21.587a2.606,2.606,0,0,0,0-2.826C46.639,8.557,33.667,7,30,7ZM57.9,30.327C55.672,33.779,43.843,51,30,51S4.328,33.779,2.1,30.327a.6.6,0,0,1,0-.654C4.328,26.221,16.157,9,30,9S55.672,26.221,57.9,29.673A.6.6,0,0,1,57.9,30.327Z"/><path d="M30,11A19,19,0,1,0,49,30,19.021,19.021,0,0,0,30,11Zm0,36A17,17,0,1,1,47,30,17.019,17.019,0,0,1,30,47Z"/><path d="M37.478,19H22.522a2.1,2.1,0,0,0-1.6.729l-4.415,5.1a2.1,2.1,0,0,0-.086,2.63l11.891,15.7a2.115,2.115,0,0,0,3.367,0l11.892-15.7a2.1,2.1,0,0,0-.086-2.63l-4.414-5.1A2.108,2.108,0,0,0,37.478,19ZM30,21.8,32.132,25H27.868ZM26,24.2,23.871,21h4.26ZM31.869,21h4.26L34,24.2Zm.868,6L30,38.634,27.263,27ZM28.193,39.69,18.584,27h6.624ZM34.792,27h6.624L31.807,39.69Zm1.075-2,2.209-3.316L40.98,25ZM21.924,21.684,24.133,25H19.02Z"/></svg>
